<svg width="237" height="283" viewBox="0 0 237 283" fill="none" xmlns="http://www.w3.org/2000/svg">
<path fill-rule="evenodd" clip-rule="evenodd" d="M34.7258 -0.000205994C15.5484 -0.000205994 0.00193977 15.5462 0.00193977 34.7237V210.947C0.00193977 230.125 15.5484 245.671 34.7258 245.671H72.0536V265.638C72.0536 275.227 79.8269 283 89.4156 283H218.762C228.351 283 236.124 275.227 236.124 265.638V89.4142C236.124 79.8255 228.351 72.0523 218.762 72.0523H198.796V34.7237C198.796 15.5462 183.25 -0.000205994 164.072 -0.000205994H34.7258ZM164.072 72.0523V34.7237L34.7258 34.7237V210.947H72.0536V177.526V89.4142C72.0536 79.8254 79.8269 72.0523 89.4156 72.0523H164.072ZM106.778 177.526V106.776H201.4V248.276H106.778V177.526Z" fill="#F3F2E8"/>
</svg>
