<svg width="590" height="465" viewBox="0 0 590 465" fill="none" xmlns="http://www.w3.org/2000/svg">
<path fill-rule="evenodd" clip-rule="evenodd" d="M285.198 142.667C285.198 221.46 221.354 285.334 142.599 285.334C63.8437 285.334 0 221.46 0 142.667C0 63.8742 63.8437 0 142.599 0C221.354 0 285.198 63.8742 285.198 142.667ZM71.7381 73.6921C80.4735 64.9525 94.6364 64.9525 103.372 73.6921L142.599 112.938L181.826 73.6921C190.562 64.9525 204.724 64.9525 213.46 73.6921C222.195 82.4317 222.195 96.6013 213.46 105.341L174.233 144.587L217.133 187.508C225.869 196.247 225.869 210.417 217.133 219.156C208.398 227.896 194.235 227.896 185.499 219.156L142.599 176.236L99.6986 219.156C90.9632 227.896 76.8003 227.896 68.0649 219.156C59.3294 210.417 59.3294 196.247 68.0649 187.508L110.965 144.587L71.7381 105.341C63.0026 96.6013 63.0026 82.4317 71.7381 73.6921Z" fill="#F3F2E8" fill-opacity="0.5"/>
<path fill-rule="evenodd" clip-rule="evenodd" d="M174.595 328.195C192.31 363.203 219.586 392.467 253.256 412.591C286.926 432.714 325.611 442.871 364.819 441.883C404.027 440.895 442.151 428.803 474.766 407.01C507.381 385.216 533.15 354.616 549.081 318.76C565.013 282.904 570.454 243.262 564.773 204.437C559.091 165.612 542.521 129.194 516.985 99.4121C491.448 69.6297 457.994 47.7036 420.503 36.1785C383.012 24.6535 343.023 24.0021 305.178 34.3001L299.131 12.057C306.359 10.0901 313.658 8.48267 321.001 7.23435C356.375 1.22054 392.774 3.53966 427.27 14.1441C468.926 26.9497 506.099 51.312 534.472 84.4036C562.846 117.495 581.257 157.959 587.57 201.098C593.882 244.237 587.837 288.283 570.135 328.123C552.434 367.963 523.802 401.964 487.562 426.179C451.323 450.393 408.963 463.829 365.399 464.927C321.834 466.025 278.852 454.739 241.44 432.38C210.46 413.864 184.352 388.384 165.113 358.081C161.12 351.791 157.422 345.293 154.039 338.607L174.595 328.195Z" fill="#F3F2E8" fill-opacity="0.5"/>
<path fill-rule="evenodd" clip-rule="evenodd" d="M377.038 109.3C384.647 110.607 389.757 117.838 388.451 125.452L367.531 247.367L455.737 313.292C461.922 317.915 463.191 326.68 458.57 332.868C453.949 339.057 445.188 340.326 439.003 335.703L343.937 264.651C339.727 261.504 337.636 256.261 338.525 251.079L360.894 120.719C362.2 113.105 369.428 107.993 377.038 109.3Z" fill="#F3F2E8" fill-opacity="0.5"/>
</svg>
