<svg width="389" height="388" viewBox="0 0 389 388" fill="none" xmlns="http://www.w3.org/2000/svg">
<path d="M388.114 194.103C388.114 301.194 301.299 388.01 194.207 388.01C87.1152 388.01 0.300049 301.194 0.300049 194.103C0.300049 87.0106 87.1152 0.195374 194.207 0.195374C301.299 0.195374 388.114 87.0106 388.114 194.103ZM22.238 194.103C22.238 289.078 99.2312 366.072 194.207 366.072C289.183 366.072 366.176 289.078 366.176 194.103C366.176 99.1266 289.183 22.1333 194.207 22.1333C99.2312 22.1333 22.238 99.1266 22.238 194.103Z" fill="#CBCEBF" fill-opacity="0.25"/>
<path d="M388.114 194.103C388.114 219.567 383.099 244.782 373.354 268.308C363.609 291.833 349.326 313.21 331.32 331.216C313.314 349.222 291.938 363.505 268.412 373.249C244.886 382.994 219.671 388.01 194.207 388.01L194.207 366.072C216.791 366.072 239.153 361.624 260.017 352.981C280.881 344.339 299.839 331.672 315.808 315.703C331.777 299.734 344.444 280.777 353.086 259.912C361.728 239.048 366.176 216.686 366.176 194.103H388.114Z" fill="#F3F2E8"/>
</svg>
