<svg width="2093" height="407" viewBox="0 0 2093 407" fill="none" xmlns="http://www.w3.org/2000/svg">
<path d="M1083.38 401L1090.91 357.783L1247.18 219.257C1263.9 204.209 1277.86 191.025 1289.05 179.706C1300.37 168.259 1309.18 157.39 1315.48 147.1C1321.91 136.811 1326.16 125.878 1328.22 114.302C1330.4 101.182 1329.24 89.8637 1324.74 80.3457C1320.37 70.6991 1313.36 63.3033 1303.71 58.1584C1294.07 52.8849 1282.49 50.2482 1268.98 50.2482C1254.84 50.2482 1241.97 53.1422 1230.4 58.9302C1218.82 64.7182 1209.18 72.8856 1201.46 83.4326C1193.74 93.9796 1188.66 106.327 1186.22 120.476H1129.49C1133.48 96.4234 1142.61 75.3938 1156.89 57.3867C1171.17 39.3797 1188.85 25.4242 1209.95 15.5203C1231.04 5.48779 1253.87 0.471536 1278.44 0.471536C1303.39 0.471536 1324.42 5.42348 1341.53 15.3274C1358.76 25.1026 1371.24 38.4793 1378.96 55.4574C1386.67 72.3069 1388.73 91.3429 1385.13 112.566C1382.56 127.357 1377.35 141.763 1369.5 155.782C1361.66 169.674 1349.57 185.237 1333.23 202.472C1316.9 219.579 1294.64 240.351 1266.48 264.789L1174.64 346.979L1174.06 349.873H1351.75L1343.46 401H1083.38ZM1720.25 104.655L1563.4 401H1501.66L1443.4 104.655H1503.01L1540.06 332.702H1543.14L1656.01 104.655H1720.25ZM1724.31 401L1731.83 357.783L1888.11 219.257C1904.83 204.209 1918.78 191.025 1929.97 179.706C1941.29 168.259 1950.1 157.39 1956.4 147.1C1962.84 136.811 1967.08 125.878 1969.14 114.302C1971.32 101.182 1970.17 89.8637 1965.67 80.3457C1961.29 70.6991 1954.28 63.3033 1944.64 58.1584C1934.99 52.8849 1923.41 50.2482 1909.91 50.2482C1895.76 50.2482 1882.9 53.1422 1871.32 58.9302C1859.74 64.7182 1850.1 72.8856 1842.38 83.4326C1834.66 93.9796 1829.58 106.327 1827.14 120.476H1770.42C1774.4 96.4234 1783.54 75.3938 1797.81 57.3867C1812.09 39.3797 1829.78 25.4242 1850.87 15.5203C1871.96 5.48779 1894.79 0.471536 1919.36 0.471536C1944.31 0.471536 1965.34 5.42348 1982.45 15.3274C1999.69 25.1026 2012.16 38.4793 2019.88 55.4574C2027.6 72.3069 2029.65 91.3429 2026.05 112.566C2023.48 127.357 2018.27 141.763 2010.43 155.782C2002.58 169.674 1990.49 185.237 1974.15 202.472C1957.82 219.579 1935.57 240.351 1907.4 264.789L1815.56 346.979L1814.98 349.873H1992.68L1984.38 401H1724.31Z" fill="#F3F2E8"/>
<path d="M17.8683 205.094V60.7168H66.6519C77.9314 60.7168 87.1899 62.6437 94.4276 66.4975C101.665 70.3043 107.023 75.5446 110.501 82.2182C113.979 88.8919 115.718 96.482 115.718 104.989C115.718 113.495 113.979 121.038 110.501 127.618C107.023 134.198 101.689 139.367 94.4981 143.127C87.3074 146.84 78.1194 148.697 66.9339 148.697H27.4559V132.905H66.37C74.0776 132.905 80.2813 131.777 84.9811 129.521C89.7278 127.266 93.1587 124.07 95.2735 119.934C97.4354 115.751 98.5164 110.769 98.5164 104.989C98.5164 99.2079 97.4354 94.1557 95.2735 89.8319C93.1117 85.5081 89.6573 82.1712 84.9106 79.8214C80.1638 77.4245 73.8896 76.226 66.088 76.226H35.3515V205.094H17.8683ZM85.827 140.237L121.357 205.094H101.054L66.088 140.237H85.827ZM185.421 207.35C175.645 207.35 167.068 205.023 159.69 200.37C152.358 195.718 146.624 189.209 142.489 180.843C138.4 172.477 136.355 162.702 136.355 151.516C136.355 140.237 138.4 130.391 142.489 121.978C146.624 113.566 152.358 107.033 159.69 102.38C167.068 97.7275 175.645 95.4011 185.421 95.4011C195.197 95.4011 203.75 97.7275 211.082 102.38C218.46 107.033 224.194 113.566 228.283 121.978C232.419 130.391 234.487 140.237 234.487 151.516C234.487 162.702 232.419 172.477 228.283 180.843C224.194 189.209 218.46 195.718 211.082 200.37C203.75 205.023 195.197 207.35 185.421 207.35ZM185.421 192.404C192.847 192.404 198.956 190.501 203.75 186.694C208.544 182.887 212.092 177.882 214.395 171.678C216.698 165.475 217.849 158.754 217.849 151.516C217.849 144.279 216.698 137.535 214.395 131.284C212.092 125.033 208.544 119.981 203.75 116.127C198.956 112.273 192.847 110.346 185.421 110.346C177.995 110.346 171.886 112.273 167.092 116.127C162.298 119.981 158.75 125.033 156.447 131.284C154.144 137.535 152.993 144.279 152.993 151.516C152.993 158.754 154.144 165.475 156.447 171.678C158.75 177.882 162.298 182.887 167.092 186.694C171.886 190.501 177.995 192.404 185.421 192.404ZM303.873 207.35C293.721 207.35 284.98 204.953 277.648 200.159C270.316 195.365 264.677 188.762 260.729 180.349C256.781 171.937 254.807 162.326 254.807 151.516C254.807 140.519 256.828 130.814 260.87 122.401C264.959 113.942 270.645 107.339 277.93 102.592C285.262 97.798 293.815 95.4011 303.591 95.4011C311.204 95.4011 318.066 96.811 324.176 99.6309C330.286 102.451 335.291 106.399 339.192 111.474C343.092 116.55 345.513 122.472 346.453 129.239H329.816C328.547 124.305 325.727 119.934 321.356 116.127C317.032 112.273 311.204 110.346 303.873 110.346C297.387 110.346 291.7 112.038 286.813 115.422C281.972 118.759 278.189 123.482 275.463 129.592C272.784 135.655 271.444 142.775 271.444 150.952C271.444 159.318 272.76 166.603 275.392 172.806C278.071 179.01 281.831 183.827 286.672 187.258C291.559 190.689 297.293 192.404 303.873 192.404C308.197 192.404 312.121 191.652 315.646 190.148C319.171 188.645 322.155 186.483 324.599 183.663C327.043 180.843 328.782 177.459 329.816 173.511H346.453C345.513 179.903 343.186 185.66 339.474 190.783C335.808 195.859 330.944 199.901 324.881 202.908C318.865 205.869 311.862 207.35 303.873 207.35ZM386.283 165.616L386.001 145.031H389.385L436.759 96.811H457.344L406.868 147.851H405.458L386.283 165.616ZM370.774 205.094V60.7168H387.411V205.094H370.774ZM439.579 205.094L397.281 151.516L409.124 139.955L460.728 205.094H439.579ZM536.846 205.094V60.7168H585.63C596.956 60.7168 606.215 62.7612 613.406 66.85C620.643 70.8918 626.001 76.367 629.479 83.2757C632.957 90.1844 634.696 97.892 634.696 106.399C634.696 114.905 632.957 122.636 629.479 129.592C626.048 136.548 620.737 142.093 613.547 146.229C606.356 150.318 597.144 152.362 585.912 152.362H550.946V136.853H585.348C593.103 136.853 599.33 135.514 604.03 132.835C608.729 130.156 612.137 126.537 614.252 121.978C616.413 117.373 617.494 112.179 617.494 106.399C617.494 100.618 616.413 95.4481 614.252 90.8893C612.137 86.3305 608.706 82.7587 603.959 80.1738C599.212 77.542 592.915 76.226 585.066 76.226H554.33V205.094H536.846ZM692.468 207.632C685.606 207.632 679.379 206.339 673.786 203.754C668.193 201.122 663.752 197.339 660.462 192.404C657.172 187.423 655.527 181.407 655.527 174.357C655.527 168.154 656.749 163.125 659.193 159.271C661.637 155.37 664.903 152.315 668.992 150.106C673.081 147.898 677.593 146.253 682.528 145.172C687.509 144.044 692.515 143.151 697.543 142.493C704.123 141.647 709.457 141.012 713.546 140.589C717.682 140.119 720.69 139.344 722.57 138.263C724.496 137.182 725.46 135.302 725.46 132.623V132.059C725.46 125.104 723.557 119.699 719.75 115.845C715.99 111.991 710.28 110.064 702.619 110.064C694.676 110.064 688.449 111.803 683.937 115.281C679.426 118.759 676.253 122.472 674.42 126.42L658.629 120.78C661.449 114.2 665.209 109.077 669.909 105.412C674.655 101.699 679.825 99.1139 685.418 97.657C691.058 96.1531 696.603 95.4011 702.055 95.4011C705.533 95.4011 709.528 95.8241 714.039 96.67C718.598 97.469 722.993 99.1374 727.222 101.675C731.499 104.213 735.047 108.043 737.867 113.166C740.687 118.289 742.097 125.151 742.097 133.751V205.094H725.46V190.43H724.614C723.486 192.78 721.606 195.295 718.974 197.974C716.342 200.652 712.841 202.932 708.47 204.812C704.099 206.692 698.765 207.632 692.468 207.632ZM695.005 192.686C701.585 192.686 707.131 191.394 711.643 188.809C716.201 186.224 719.632 182.887 721.935 178.799C724.285 174.71 725.46 170.409 725.46 165.898V150.67C724.755 151.516 723.204 152.292 720.807 152.997C718.457 153.655 715.731 154.242 712.63 154.759C709.575 155.229 706.59 155.652 703.676 156.028C700.81 156.357 698.483 156.639 696.697 156.874C692.374 157.438 688.332 158.355 684.572 159.623C680.859 160.845 677.851 162.702 675.548 165.193C673.292 167.637 672.165 170.973 672.165 175.203C672.165 180.984 674.303 185.355 678.58 188.316C682.904 191.229 688.379 192.686 695.005 192.686ZM772.464 245.7V96.811H788.537V114.012H790.511C791.733 112.132 793.424 109.735 795.586 106.822C797.795 103.861 800.944 101.229 805.033 98.9259C809.169 96.576 814.761 95.4011 821.811 95.4011C830.929 95.4011 838.965 97.6805 845.921 102.239C852.877 106.798 858.305 113.26 862.206 121.626C866.106 129.991 868.057 139.861 868.057 151.234C868.057 162.702 866.106 172.642 862.206 181.054C858.305 189.42 852.9 195.906 845.991 200.511C839.083 205.07 831.117 207.35 822.093 207.35C815.137 207.35 809.568 206.198 805.385 203.895C801.203 201.545 797.983 198.89 795.727 195.929C793.471 192.921 791.733 190.43 790.511 188.457H789.101V245.7H772.464ZM788.819 150.952C788.819 159.13 790.017 166.344 792.414 172.595C794.811 178.799 798.312 183.663 802.918 187.188C807.524 190.665 813.164 192.404 819.837 192.404C826.793 192.404 832.597 190.571 837.25 186.906C841.95 183.193 845.474 178.211 847.824 171.96C850.221 165.663 851.42 158.66 851.42 150.952C851.42 143.339 850.245 136.477 847.895 130.367C845.592 124.211 842.091 119.346 837.391 115.775C832.738 112.156 826.887 110.346 819.837 110.346C813.07 110.346 807.383 112.062 802.777 115.493C798.171 118.876 794.693 123.623 792.344 129.733C789.994 135.796 788.819 142.869 788.819 150.952ZM938.835 207.35C928.402 207.35 919.402 205.047 911.835 200.441C904.316 195.788 898.511 189.303 894.423 180.984C890.381 172.618 888.36 162.89 888.36 151.798C888.36 140.707 890.381 130.931 894.423 122.472C898.511 113.965 904.198 107.339 911.483 102.592C918.814 97.798 927.368 95.4011 937.143 95.4011C942.783 95.4011 948.352 96.3411 953.851 98.221C959.35 100.101 964.355 103.156 968.867 107.386C973.379 111.568 976.974 117.114 979.653 124.023C982.332 130.931 983.671 139.438 983.671 149.542V156.592H900.203V142.211H966.752C966.752 136.101 965.53 130.649 963.086 125.856C960.689 121.062 957.258 117.279 952.794 114.506C948.376 111.733 943.159 110.346 937.143 110.346C930.517 110.346 924.783 111.991 919.942 115.281C915.148 118.524 911.459 122.754 908.874 127.971C906.289 133.187 904.997 138.78 904.997 144.749V154.336C904.997 162.514 906.407 169.446 909.227 175.133C912.094 180.772 916.065 185.073 921.141 188.034C926.216 190.947 932.115 192.404 938.835 192.404C943.206 192.404 947.154 191.793 950.679 190.571C954.251 189.303 957.329 187.423 959.914 184.932C962.499 182.394 964.496 179.245 965.906 175.485L981.979 179.997C980.287 185.449 977.444 190.242 973.449 194.378C969.454 198.467 964.52 201.663 958.645 203.966C952.77 206.222 946.167 207.35 938.835 207.35ZM1008.98 205.094V96.811H1025.05V113.166H1026.18C1028.15 107.808 1031.73 103.461 1036.9 100.124C1042.07 96.7875 1047.89 95.1191 1054.38 95.1191C1055.6 95.1191 1057.13 95.1426 1058.96 95.1896C1060.79 95.2366 1062.18 95.3071 1063.12 95.4011V112.32C1062.56 112.179 1061.26 111.968 1059.24 111.686C1057.27 111.357 1055.18 111.192 1052.97 111.192C1047.71 111.192 1043.01 112.297 1038.87 114.506C1034.78 116.668 1031.54 119.675 1029.14 123.529C1026.79 127.336 1025.62 131.683 1025.62 136.571V205.094H1008.98Z" fill="#F3F2E8"/>
<path d="M332.509 295.329C331.663 288.185 328.232 282.639 322.216 278.692C316.201 274.744 308.822 272.77 300.08 272.77C293.689 272.77 288.096 273.804 283.302 275.872C278.556 277.94 274.843 280.783 272.164 284.402C269.532 288.021 268.216 292.133 268.216 296.739C268.216 300.593 269.132 303.906 270.965 306.679C272.845 309.405 275.242 311.684 278.156 313.517C281.07 315.303 284.125 316.783 287.321 317.958C290.516 319.086 293.454 320.003 296.133 320.708L310.796 324.655C314.556 325.642 318.739 327.005 323.344 328.744C327.997 330.483 332.438 332.857 336.668 335.864C340.945 338.825 344.47 342.632 347.243 347.285C350.016 351.938 351.402 357.648 351.402 364.415C351.402 372.217 349.358 379.267 345.269 385.564C341.227 391.862 335.305 396.867 327.504 400.58C319.749 404.293 310.326 406.149 299.235 406.149C288.895 406.149 279.942 404.481 272.375 401.144C264.856 397.807 258.934 393.155 254.61 387.186C250.333 381.217 247.913 374.285 247.349 366.389H265.396C265.866 371.841 267.699 376.353 270.895 379.925C274.138 383.45 278.227 386.081 283.161 387.82C288.143 389.512 293.501 390.358 299.235 390.358C305.908 390.358 311.9 389.277 317.211 387.115C322.522 384.906 326.728 381.852 329.83 377.951C332.932 374.003 334.483 369.397 334.483 364.133C334.483 359.34 333.143 355.439 330.465 352.431C327.786 349.423 324.261 346.979 319.89 345.099C315.519 343.22 310.796 341.575 305.72 340.165L287.955 335.089C276.676 331.846 267.746 327.217 261.166 321.201C254.587 315.185 251.297 307.313 251.297 297.585C251.297 289.501 253.482 282.451 257.853 276.436C262.271 270.373 268.193 265.673 275.618 262.336C283.091 258.953 291.433 257.261 300.644 257.261C309.95 257.261 318.222 258.929 325.459 262.266C332.697 265.556 338.431 270.068 342.66 275.801C346.937 281.535 349.193 288.044 349.428 295.329H332.509ZM421.881 405.867C411.729 405.867 402.988 403.471 395.656 398.677C388.325 393.883 382.685 387.28 378.737 378.867C374.789 370.455 372.815 360.844 372.815 350.034C372.815 339.037 374.836 329.332 378.878 320.919C382.967 312.46 388.654 305.856 395.938 301.11C403.27 296.316 411.823 293.919 421.599 293.919C429.213 293.919 436.074 295.329 442.184 298.149C448.294 300.969 453.299 304.916 457.2 309.992C461.1 315.068 463.521 320.99 464.461 327.757H447.824C446.555 322.823 443.735 318.452 439.364 314.645C435.04 310.791 429.213 308.864 421.881 308.864C415.395 308.864 409.709 310.556 404.821 313.94C399.98 317.277 396.197 322 393.471 328.11C390.792 334.172 389.452 341.293 389.452 349.47C389.452 357.836 390.768 365.12 393.4 371.324C396.079 377.528 399.839 382.345 404.68 385.776C409.568 389.207 415.301 390.922 421.881 390.922C426.205 390.922 430.129 390.17 433.654 388.666C437.179 387.162 440.163 385 442.607 382.181C445.051 379.361 446.79 375.977 447.824 372.029H464.461C463.521 378.421 461.194 384.178 457.482 389.301C453.816 394.377 448.952 398.418 442.889 401.426C436.873 404.387 429.871 405.867 421.881 405.867ZM488.782 403.612V295.329H505.419V403.612H488.782ZM497.242 277.282C493.999 277.282 491.203 276.177 488.853 273.968C486.55 271.76 485.398 269.104 485.398 266.002C485.398 262.9 486.55 260.245 488.853 258.036C491.203 255.827 493.999 254.723 497.242 254.723C500.485 254.723 503.257 255.827 505.56 258.036C507.91 260.245 509.085 262.9 509.085 266.002C509.085 269.104 507.91 271.76 505.56 273.968C503.257 276.177 500.485 277.282 497.242 277.282ZM612.592 319.58L597.646 323.809C596.707 321.319 595.32 318.898 593.487 316.548C591.701 314.151 589.257 312.178 586.156 310.627C583.054 309.076 579.082 308.3 574.242 308.3C567.615 308.3 562.093 309.828 557.675 312.883C553.304 315.89 551.119 319.721 551.119 324.373C551.119 328.509 552.623 331.776 555.631 334.172C558.638 336.569 563.338 338.567 569.73 340.165L585.803 344.112C595.485 346.462 602.699 350.058 607.445 354.898C612.192 359.692 614.566 365.872 614.566 373.439C614.566 379.643 612.78 385.188 609.208 390.076C605.683 394.964 600.748 398.818 594.404 401.638C588.059 404.458 580.68 405.867 572.268 405.867C561.223 405.867 552.082 403.471 544.845 398.677C537.607 393.883 533.025 386.88 531.098 377.669L546.889 373.721C548.393 379.549 551.236 383.92 555.419 386.833C559.649 389.747 565.171 391.204 571.986 391.204C579.74 391.204 585.897 389.559 590.456 386.269C595.062 382.933 597.364 378.938 597.364 374.285C597.364 370.525 596.049 367.376 593.417 364.838C590.785 362.254 586.743 360.327 581.291 359.058L563.244 354.828C553.328 352.478 546.043 348.836 541.39 343.901C536.784 338.919 534.482 332.692 534.482 325.219C534.482 319.11 536.197 313.705 539.628 309.005C543.106 304.305 547.829 300.616 553.798 297.937C559.813 295.258 566.628 293.919 574.242 293.919C584.957 293.919 593.37 296.269 599.479 300.969C605.636 305.668 610.007 311.872 612.592 319.58ZM716.31 319.58L701.365 323.809C700.425 321.319 699.038 318.898 697.205 316.548C695.419 314.151 692.975 312.178 689.874 310.627C686.772 309.076 682.8 308.3 677.96 308.3C671.333 308.3 665.811 309.828 661.393 312.883C657.022 315.89 654.837 319.721 654.837 324.373C654.837 328.509 656.341 331.776 659.349 334.172C662.356 336.569 667.056 338.567 673.448 340.165L689.521 344.112C699.203 346.462 706.417 350.058 711.164 354.898C715.91 359.692 718.284 365.872 718.284 373.439C718.284 379.643 716.498 385.188 712.926 390.076C709.401 394.964 704.466 398.818 698.122 401.638C691.777 404.458 684.398 405.867 675.986 405.867C664.941 405.867 655.8 403.471 648.563 398.677C641.325 393.883 636.743 386.88 634.816 377.669L650.607 373.721C652.111 379.549 654.954 383.92 659.137 386.833C663.367 389.747 668.889 391.204 675.704 391.204C683.458 391.204 689.615 389.559 694.174 386.269C698.78 382.933 701.083 378.938 701.083 374.285C701.083 370.525 699.767 367.376 697.135 364.838C694.503 362.254 690.461 360.327 685.009 359.058L666.962 354.828C657.046 352.478 649.761 348.836 645.108 343.901C640.503 338.919 638.2 332.692 638.2 325.219C638.2 319.11 639.915 313.705 643.346 309.005C646.824 304.305 651.547 300.616 657.516 297.937C663.531 295.258 670.346 293.919 677.96 293.919C688.675 293.919 697.088 296.269 703.197 300.969C709.354 305.668 713.725 311.872 716.31 319.58ZM787.317 405.867C777.542 405.867 768.965 403.541 761.586 398.888C754.255 394.236 748.521 387.726 744.385 379.361C740.296 370.995 738.252 361.22 738.252 350.034C738.252 338.755 740.296 328.909 744.385 320.496C748.521 312.084 754.255 305.551 761.586 300.898C768.965 296.245 777.542 293.919 787.317 293.919C797.093 293.919 805.647 296.245 812.978 300.898C820.357 305.551 826.091 312.084 830.179 320.496C834.315 328.909 836.383 338.755 836.383 350.034C836.383 361.22 834.315 370.995 830.179 379.361C826.091 387.726 820.357 394.236 812.978 398.888C805.647 403.541 797.093 405.867 787.317 405.867ZM787.317 390.922C794.743 390.922 800.853 389.019 805.647 385.212C810.44 381.405 813.989 376.4 816.292 370.196C818.594 363.993 819.746 357.272 819.746 350.034C819.746 342.797 818.594 336.052 816.292 329.802C813.989 323.551 810.44 318.499 805.647 314.645C800.853 310.791 794.743 308.864 787.317 308.864C779.892 308.864 773.782 310.791 768.988 314.645C764.195 318.499 760.646 323.551 758.343 329.802C756.04 336.052 754.889 342.797 754.889 350.034C754.889 357.272 756.04 363.993 758.343 370.196C760.646 376.4 764.195 381.405 768.988 385.212C773.782 389.019 779.892 390.922 787.317 390.922ZM861.78 403.612V295.329H877.853V311.684H878.981C880.955 306.326 884.526 301.979 889.696 298.642C894.866 295.305 900.694 293.637 907.179 293.637C908.401 293.637 909.929 293.66 911.762 293.707C913.594 293.754 914.981 293.825 915.921 293.919V310.838C915.357 310.697 914.064 310.486 912.044 310.204C910.07 309.875 907.978 309.71 905.769 309.71C900.506 309.71 895.806 310.815 891.67 313.023C887.581 315.185 884.338 318.193 881.942 322.047C879.592 325.854 878.417 330.201 878.417 335.089V403.612H861.78ZM1012.34 319.58L997.397 323.809C996.457 321.319 995.071 318.898 993.238 316.548C991.452 314.151 989.008 312.178 985.906 310.627C982.804 309.076 978.833 308.3 973.992 308.3C967.366 308.3 961.843 309.828 957.426 312.883C953.055 315.89 950.869 319.721 950.869 324.373C950.869 328.509 952.373 331.776 955.381 334.172C958.389 336.569 963.089 338.567 969.481 340.165L985.554 344.112C995.235 346.462 1002.45 350.058 1007.2 354.898C1011.94 359.692 1014.32 365.872 1014.32 373.439C1014.32 379.643 1012.53 385.188 1008.96 390.076C1005.43 394.964 1000.5 398.818 994.154 401.638C987.81 404.458 980.431 405.867 972.018 405.867C960.974 405.867 951.833 403.471 944.595 398.677C937.358 393.883 932.775 386.88 930.848 377.669L946.64 373.721C948.144 379.549 950.987 383.92 955.17 386.833C959.4 389.747 964.922 391.204 971.736 391.204C979.491 391.204 985.648 389.559 990.207 386.269C994.812 382.933 997.115 378.938 997.115 374.285C997.115 370.525 995.799 367.376 993.167 364.838C990.535 362.254 986.494 360.327 981.042 359.058L962.995 354.828C953.078 352.478 945.794 348.836 941.141 343.901C936.535 338.919 934.232 332.692 934.232 325.219C934.232 319.11 935.948 313.705 939.378 309.005C942.856 304.305 947.58 300.616 953.548 297.937C959.564 295.258 966.379 293.919 973.992 293.919C984.708 293.919 993.12 296.269 999.23 300.969C1005.39 305.668 1009.76 311.872 1012.34 319.58Z" fill="#F3F2E8"/>
</svg>
