<svg width="265" height="151" viewBox="0 0 265 151" fill="none" xmlns="http://www.w3.org/2000/svg">
<path d="M32.0994 89.5391H38.9452L47.1307 104.342H47.4574L55.6429 89.5391H62.4887L50.3166 110.518V123H44.2715V110.518L32.0994 89.5391ZM72.7941 123.49C70.3433 123.49 68.2193 122.951 66.4221 121.873C64.6249 120.794 63.2307 119.286 62.2395 117.347C61.2592 115.408 60.7691 113.143 60.7691 110.55C60.7691 107.958 61.2592 105.687 62.2395 103.737C63.2307 101.787 64.6249 100.273 66.4221 99.1951C68.2193 98.1168 70.3433 97.5776 72.7941 97.5776C75.2448 97.5776 77.3688 98.1168 79.166 99.1951C80.9632 100.273 82.352 101.787 83.3323 103.737C84.3235 105.687 84.8191 107.958 84.8191 110.55C84.8191 113.143 84.3235 115.408 83.3323 117.347C82.352 119.286 80.9632 120.794 79.166 121.873C77.3688 122.951 75.2448 123.49 72.7941 123.49ZM72.8267 118.752C74.1556 118.752 75.2666 118.387 76.1598 117.657C77.0529 116.917 77.7173 115.926 78.153 114.684C78.5996 113.442 78.8229 112.059 78.8229 110.534C78.8229 108.998 78.5996 107.609 78.153 106.368C77.7173 105.115 77.0529 104.118 76.1598 103.378C75.2666 102.637 74.1556 102.267 72.8267 102.267C71.4652 102.267 70.3324 102.637 69.4284 103.378C68.5352 104.118 67.8653 105.115 67.4188 106.368C66.9831 107.609 66.7652 108.998 66.7652 110.534C66.7652 112.059 66.9831 113.442 67.4188 114.684C67.8653 115.926 68.5352 116.917 69.4284 117.657C70.3324 118.387 71.4652 118.752 72.8267 118.752ZM105.834 112.445V97.9044H111.749V123H106.014V118.54H105.753C105.186 119.945 104.255 121.094 102.959 121.987C101.673 122.88 100.089 123.327 98.2042 123.327C96.5595 123.327 95.1054 122.962 93.8419 122.232C92.5893 121.491 91.609 120.419 90.901 119.013C90.193 117.597 89.839 115.887 89.839 113.883V97.9044H95.7535V112.968C95.7535 114.559 96.1892 115.822 97.0605 116.759C97.9319 117.695 99.0756 118.164 100.492 118.164C101.363 118.164 102.207 117.951 103.024 117.527C103.841 117.102 104.511 116.47 105.034 115.631C105.567 114.782 105.834 113.72 105.834 112.445ZM135.157 89.5391V123H129.243V89.5391H135.157ZM152.186 123.49C149.735 123.49 147.611 122.951 145.814 121.873C144.017 120.794 142.623 119.286 141.631 117.347C140.651 115.408 140.161 113.143 140.161 110.55C140.161 107.958 140.651 105.687 141.631 103.737C142.623 101.787 144.017 100.273 145.814 99.1951C147.611 98.1168 149.735 97.5776 152.186 97.5776C154.637 97.5776 156.761 98.1168 158.558 99.1951C160.355 100.273 161.744 101.787 162.724 103.737C163.715 105.687 164.211 107.958 164.211 110.55C164.211 113.143 163.715 115.408 162.724 117.347C161.744 119.286 160.355 120.794 158.558 121.873C156.761 122.951 154.637 123.49 152.186 123.49ZM152.219 118.752C153.548 118.752 154.659 118.387 155.552 117.657C156.445 116.917 157.109 115.926 157.545 114.684C157.992 113.442 158.215 112.059 158.215 110.534C158.215 108.998 157.992 107.609 157.545 106.368C157.109 105.115 156.445 104.118 155.552 103.378C154.659 102.637 153.548 102.267 152.219 102.267C150.857 102.267 149.724 102.637 148.82 103.378C147.927 104.118 147.257 105.115 146.811 106.368C146.375 107.609 146.157 108.998 146.157 110.534C146.157 112.059 146.375 113.442 146.811 114.684C147.257 115.926 147.927 116.917 148.82 117.657C149.724 118.387 150.857 118.752 152.219 118.752ZM189.066 104.538L183.674 105.126C183.521 104.581 183.255 104.069 182.873 103.59C182.503 103.111 182.002 102.724 181.37 102.43C180.739 102.136 179.965 101.989 179.05 101.989C177.819 101.989 176.785 102.256 175.946 102.79C175.118 103.323 174.71 104.015 174.721 104.864C174.71 105.594 174.977 106.188 175.521 106.645C176.077 107.103 176.992 107.479 178.266 107.773L182.547 108.688C184.921 109.2 186.686 110.011 187.84 111.122C189.006 112.233 189.594 113.687 189.605 115.484C189.594 117.064 189.131 118.458 188.216 119.667C187.312 120.865 186.054 121.802 184.442 122.477C182.83 123.152 180.978 123.49 178.887 123.49C175.815 123.49 173.343 122.848 171.469 121.562C169.596 120.266 168.479 118.463 168.12 116.154L173.887 115.599C174.149 116.732 174.704 117.587 175.554 118.164C176.403 118.741 177.509 119.03 178.871 119.03C180.276 119.03 181.403 118.741 182.253 118.164C183.113 117.587 183.543 116.873 183.543 116.024C183.543 115.305 183.266 114.711 182.71 114.243C182.165 113.774 181.316 113.415 180.161 113.164L175.881 112.266C173.473 111.765 171.693 110.921 170.538 109.733C169.383 108.535 168.812 107.021 168.822 105.191C168.812 103.645 169.231 102.305 170.081 101.172C170.941 100.028 172.134 99.1461 173.659 98.5252C175.194 97.8935 176.964 97.5776 178.969 97.5776C181.909 97.5776 184.224 98.2039 185.912 99.4565C187.612 100.709 188.663 102.403 189.066 104.538ZM205.592 123.49C203.076 123.49 200.903 122.967 199.073 121.922C197.254 120.865 195.854 119.373 194.874 117.445C193.894 115.506 193.403 113.224 193.403 110.599C193.403 108.018 193.894 105.752 194.874 103.802C195.865 101.842 197.248 100.317 199.024 99.2278C200.799 98.1277 202.885 97.5776 205.281 97.5776C206.828 97.5776 208.288 97.8281 209.66 98.3292C211.043 98.8193 212.263 99.5818 213.32 100.617C214.387 101.651 215.226 102.969 215.836 104.57C216.446 106.161 216.751 108.056 216.751 110.256V112.07H196.181V108.083H211.081C211.071 106.95 210.826 105.943 210.346 105.061C209.867 104.167 209.197 103.465 208.337 102.953C207.487 102.441 206.496 102.185 205.363 102.185C204.154 102.185 203.092 102.479 202.177 103.067C201.262 103.645 200.549 104.407 200.037 105.355C199.536 106.291 199.28 107.321 199.269 108.443V111.923C199.269 113.382 199.536 114.635 200.069 115.68C200.603 116.715 201.349 117.51 202.308 118.066C203.266 118.61 204.388 118.883 205.674 118.883C206.534 118.883 207.313 118.763 208.01 118.523C208.707 118.273 209.312 117.908 209.823 117.429C210.335 116.949 210.722 116.356 210.983 115.648L216.506 116.269C216.157 117.728 215.493 119.003 214.513 120.092C213.543 121.17 212.301 122.009 210.787 122.608C209.273 123.196 207.542 123.49 205.592 123.49ZM228.992 89.5391L228.453 113.164H223.192L222.669 89.5391H228.992ZM225.823 123.359C224.832 123.359 223.982 123.011 223.274 122.314C222.577 121.617 222.228 120.767 222.228 119.765C222.228 118.785 222.577 117.946 223.274 117.249C223.982 116.552 224.832 116.203 225.823 116.203C226.792 116.203 227.631 116.552 228.339 117.249C229.058 117.946 229.417 118.785 229.417 119.765C229.417 120.429 229.248 121.034 228.911 121.579C228.584 122.123 228.148 122.559 227.604 122.886C227.07 123.202 226.476 123.359 225.823 123.359Z" fill="#F3F2E8"/>
<path fill-rule="evenodd" clip-rule="evenodd" d="M39 52H8.94928C4.00673 52 0 56.0067 0 60.9493V142.051C0 146.993 4.00673 151 8.94928 151H256.051C260.993 151 265 146.993 265 142.051V60.9493C265 56.0067 260.993 52 256.051 52H226V55.5797H256.051C259.016 55.5797 261.42 57.9837 261.42 60.9493V142.051C261.42 145.016 259.016 147.42 256.051 147.42H8.94928C5.98375 147.42 3.57971 145.016 3.57971 142.051V60.9493C3.57971 57.9837 5.98375 55.5797 8.94928 55.5797H39V52Z" fill="#F3F2E8" fill-opacity="0.5"/>
<path fill-rule="evenodd" clip-rule="evenodd" d="M140.462 64.3724V72.0255C140.462 75.5063 144.297 75.7395 147.73 75.7395C151.163 75.7395 153.946 73.548 153.946 70.0672V61.3464C161.9 55.7314 167 46.8342 167 36.0336C167 17.2374 151.554 2 132.5 2C113.446 2 98 17.2374 98 36.0336C98 47.113 103.367 56.1894 111.676 61.7747V70.0672C111.676 73.548 114.459 75.7395 117.892 75.7395C121.325 75.7395 125.297 75.1236 125.297 71.6429L125.676 64.7551V71.6429C125.676 75.1236 129.378 77 132.811 77C136.244 77 140.082 75.5063 140.082 72.0255L140.462 64.3724ZM117.27 49.8992C123.45 49.8992 128.459 44.82 128.459 38.5546C128.459 32.2892 123.45 27.2101 117.27 27.2101C111.091 27.2101 106.081 32.2892 106.081 38.5546C106.081 44.82 111.091 49.8992 117.27 49.8992ZM158.919 38.5546C158.919 44.82 153.909 49.8992 147.73 49.8992C141.55 49.8992 136.541 44.82 136.541 38.5546C136.541 32.2892 141.55 27.2101 147.73 27.2101C153.909 27.2101 158.919 32.2892 158.919 38.5546ZM135.59 55.4647C136.919 56.0405 137.784 56.4152 137.784 54.6261C137.784 51.6674 135.418 49.2689 132.5 49.2689C129.582 49.2689 127.216 51.6674 127.216 54.6261C127.216 56.4152 128.081 56.0405 129.41 55.4647C130.279 55.0883 131.347 54.6261 132.5 54.6261C133.653 54.6261 134.721 55.0883 135.59 55.4647Z" stroke="white" stroke-opacity="0.5" stroke-width="4"/>
<path d="M77.4537 42.9291L74.3042 33.2361C73.1068 29.5508 67.8932 29.5508 66.6958 33.2361L63.5463 42.9291L53.3545 42.9291C49.4796 42.9291 47.8685 47.8875 51.0033 50.1652L59.2487 56.1558L56.0993 65.8488C54.9019 69.534 59.1198 72.5985 62.2546 70.3209L70.5 64.3303L78.7454 70.3209C81.8802 72.5985 86.0981 69.534 84.9007 65.8488L81.7513 56.1558L89.9967 50.1652C93.1315 47.8875 91.5204 42.9291 87.6455 42.9291H77.4537Z" stroke="#F3F2E8" stroke-opacity="0.5" stroke-width="4"/>
<path d="M204.454 42.9291L201.304 33.2361C200.107 29.5508 194.893 29.5508 193.696 33.2361L190.546 42.9291L180.354 42.9291C176.48 42.9291 174.868 47.8875 178.003 50.1652L186.249 56.1558L183.099 65.8488C181.902 69.534 186.12 72.5985 189.255 70.3209L197.5 64.3303L205.745 70.3209C208.88 72.5985 213.098 69.534 211.901 65.8488L208.751 56.1558L216.997 50.1652C220.132 47.8875 218.52 42.9291 214.646 42.9291H204.454Z" stroke="#F3F2E8" stroke-opacity="0.5" stroke-width="4"/>
</svg>
