<svg width="308" height="398" viewBox="0 0 308 398" fill="none" xmlns="http://www.w3.org/2000/svg">
<rect x="0.367554" y="0.33313" width="307.591" height="397.072" rx="9.32095" fill="#FFCE75"/>
<path fill-rule="evenodd" clip-rule="evenodd" d="M0.367554 68.8058V59.9872L307.959 59.9872V68.8058L0.367554 68.8058ZM0.367554 116.426V107.608L307.959 107.608V116.426L0.367554 116.426ZM0.367554 164.047V155.228L307.959 155.228V164.047L0.367554 164.047ZM0.367554 211.667V202.849L307.959 202.849V211.667H0.367554ZM0.367554 259.288V250.469L307.959 250.469V259.288L0.367554 259.288ZM0.367554 306.909V298.09L307.959 298.09V306.909L0.367554 306.909ZM0.367554 354.529V345.71L307.959 345.71V354.529L0.367554 354.529Z" fill="#A3881D"/>
<path fill-rule="evenodd" clip-rule="evenodd" d="M46.9723 397.405V0.33313H56.2932V397.405H46.9723Z" fill="#D4AC62"/>
</svg>
