<svg width="924" height="335" viewBox="0 0 924 335" fill="none" xmlns="http://www.w3.org/2000/svg">
<path d="M52.737 153.35L44.8665 47.7988L80.5312 45.1394C88.8117 44.5219 95.6919 45.5119 101.172 48.1091C106.683 50.6694 110.899 54.3802 113.818 59.2414C116.737 64.1026 118.429 69.6426 118.892 75.8616C119.356 82.0806 118.506 87.8275 116.343 93.1022C114.214 98.3744 110.633 102.718 105.602 106.134C100.568 109.515 93.9451 111.512 85.7333 112.124L60.1701 114.03L59.3247 102.692L84.4755 100.816C90.1447 100.394 94.6243 99.075 97.9141 96.8603C101.204 94.6456 103.498 91.8142 104.795 88.3661C106.125 84.8811 106.632 81.0255 106.317 76.7993C106.002 72.5732 104.93 68.8526 103.101 65.6376C101.306 62.4201 98.603 59.9958 94.9919 58.3648C91.3781 56.6995 86.7023 56.0808 80.9643 56.5086L58.4935 58.1842L65.5186 152.397L52.737 153.35ZM147.506 40.1454L155.376 145.696L143.213 146.603L135.342 41.0523L147.506 40.1454ZM201.087 144.154C196.071 144.528 191.448 143.922 187.218 142.337C182.986 140.718 179.533 138.194 176.859 134.766C174.182 131.303 172.652 126.995 172.267 121.841C171.929 117.306 172.548 113.563 174.125 110.612C175.699 107.627 177.92 105.216 180.789 103.378C183.658 101.54 186.867 100.092 190.415 99.0323C193.996 97.9361 197.607 97.0104 201.247 96.2552C206.011 95.2781 209.876 94.5234 212.843 93.9913C215.841 93.4223 217.997 92.6914 219.313 91.7986C220.663 90.9033 221.264 89.4765 221.118 87.518L221.088 87.1057C220.708 82.0206 219.022 78.173 216.029 75.5631C213.07 72.9506 208.791 71.8532 203.19 72.2708C197.383 72.7038 192.926 74.3145 189.817 77.1031C186.708 79.8916 184.591 82.7789 183.466 85.7649L171.614 82.5027C173.317 77.5387 175.787 73.5886 179.023 70.6524C182.29 67.6793 185.929 65.5077 189.938 64.1377C193.979 62.7308 197.993 61.8787 201.978 61.5815C204.521 61.3919 207.465 61.4834 210.809 61.8559C214.186 62.1915 217.489 63.1717 220.72 64.7965C223.985 66.4187 226.788 69.0256 229.128 72.617C231.469 76.2084 232.874 81.148 233.343 87.4357L237.232 139.593L225.069 140.5L224.27 129.78L223.651 129.826C222.955 131.605 221.717 133.546 219.939 135.648C218.161 137.75 215.726 139.607 212.633 141.22C209.54 142.832 205.691 143.81 201.087 144.154ZM202.128 133.089C206.938 132.73 210.922 131.483 214.08 129.347C217.272 127.209 219.598 124.583 221.059 121.468C222.554 118.351 223.178 115.143 222.932 111.844L222.102 100.712C221.633 101.369 220.541 102.02 218.827 102.666C217.145 103.275 215.185 103.853 212.945 104.401C210.737 104.911 208.579 105.383 206.469 105.816C204.391 106.213 202.705 106.546 201.413 106.815C198.282 107.463 195.377 108.354 192.698 109.486C190.05 110.582 187.952 112.103 186.405 114.05C184.889 115.959 184.246 118.46 184.476 121.553C184.792 125.779 186.593 128.858 189.881 130.789C193.201 132.684 197.283 133.45 202.128 133.089ZM266.645 167.251C264.584 167.404 262.733 167.37 261.092 167.147C259.454 166.958 258.314 166.732 257.673 166.469L259.966 155.518C262.977 156.054 265.609 156.134 267.861 155.759C270.114 155.383 272.048 154.22 273.664 152.268C275.318 150.348 276.733 147.323 277.911 143.193L279.718 136.839L244.51 59.4466L257.704 58.4628L284.26 119.917L285.085 119.855L302.233 55.1424L315.427 54.1586L288.588 147.372C287.381 151.574 285.761 155.098 283.727 157.944C281.696 160.825 279.252 163.028 276.394 164.554C273.571 166.078 270.322 166.977 266.645 167.251ZM396.138 127.744L366.115 50.379L378.897 49.426L400.527 108.759L401.352 108.698L413.737 46.8281L426.725 45.8596L447.927 105.018L448.752 104.956L461.359 43.2771L474.14 42.3241L455.923 123.286L443.966 124.177L422.114 64.6532L420.877 64.7454L408.095 126.852L396.138 127.744ZM496.123 120.288L490.22 41.125L502.383 40.2181L508.286 119.381L496.123 120.288ZM495.421 27.47C493.05 27.6468 490.946 26.9918 489.107 25.505C487.303 24.0157 486.317 22.1372 486.148 19.8695C485.979 17.6018 486.676 15.5977 488.239 13.8573C489.836 12.1143 491.821 11.1545 494.191 10.9777C496.562 10.8009 498.649 11.4572 500.453 12.9465C502.292 14.4333 503.296 16.3105 503.465 18.5782C503.634 20.8459 502.92 22.8513 501.322 24.5942C499.759 26.3346 497.792 27.2932 495.421 27.47ZM559.089 35.9898L559.857 46.2975L518.833 49.3566L518.064 39.0489L559.089 35.9898ZM528.607 19.1911L540.77 18.2841L546.396 93.7366C546.652 97.1725 547.342 99.7123 548.467 101.356C549.623 102.963 551.013 103.999 552.638 104.465C554.293 104.895 556.015 105.043 557.801 104.91C559.141 104.81 560.236 104.659 561.084 104.457C561.931 104.222 562.608 104.033 563.115 103.891L566.404 114.633C565.602 115.004 564.474 115.399 563.02 115.818C561.568 116.272 559.708 116.583 557.441 116.753C554.005 117.009 550.582 116.521 547.174 115.29C543.8 114.056 540.917 112.007 538.527 109.145C536.172 106.281 534.822 102.546 534.479 97.942L528.607 19.1911ZM593.601 65.1334L597.152 112.755L584.988 113.662L577.118 8.111L589.281 7.20404L592.171 45.961L593.202 45.8842C594.752 41.6571 597.293 38.2026 600.825 35.5208C604.388 32.8021 609.279 31.2108 615.498 30.7471C620.892 30.3449 625.697 31.0749 629.913 32.9372C634.126 34.7651 637.515 37.812 640.079 42.0778C642.674 46.3067 644.226 51.8226 644.733 58.6257L648.484 108.927L636.321 109.834L632.632 60.3573C632.163 54.0696 630.168 49.3295 626.648 46.137C623.159 42.9075 618.546 41.5067 612.808 41.9346C608.822 42.2318 605.312 43.34 602.276 45.2593C599.275 47.1761 596.985 49.8172 595.404 53.1827C593.859 56.5457 593.257 60.5293 593.601 65.1334ZM115.813 327.001C110.797 327.375 106.174 326.769 101.944 325.184C97.712 323.565 94.2588 321.041 91.5846 317.613C88.9079 314.15 87.3774 309.842 86.9931 304.688C86.6549 300.153 87.2741 296.41 88.8507 293.459C90.4248 290.474 92.6462 288.063 95.515 286.225C98.3838 284.387 101.593 282.939 105.141 281.879C108.722 280.783 112.333 279.858 115.973 279.102C120.737 278.125 124.602 277.371 127.569 276.838C130.567 276.269 132.723 275.539 134.039 274.646C135.388 273.75 135.99 272.324 135.844 270.365L135.814 269.953C135.434 264.868 133.748 261.02 130.755 258.41C127.796 255.798 123.517 254.7 117.916 255.118C112.109 255.551 107.652 257.162 104.543 259.95C101.434 262.739 99.317 265.626 98.1922 268.612L86.3401 265.35C88.043 260.386 90.5125 256.436 93.7485 253.5C97.0164 250.526 100.655 248.355 104.664 246.985C108.705 245.578 112.719 244.726 116.704 244.429C119.247 244.239 122.191 244.331 125.535 244.703C128.912 245.039 132.215 246.019 135.446 247.644C138.711 249.266 141.514 251.873 143.854 255.464C146.195 259.056 147.6 263.995 148.069 270.283L151.958 322.44L139.795 323.347L138.996 312.627L138.377 312.673C137.681 314.452 136.443 316.393 134.665 318.495C132.887 320.597 130.452 322.454 127.359 324.067C124.266 325.679 120.417 326.657 115.813 327.001ZM116.854 315.936C121.664 315.577 125.648 314.33 128.806 312.195C131.998 310.056 134.324 307.43 135.785 304.315C137.28 301.198 137.904 297.99 137.658 294.691L136.828 283.559C136.359 284.216 135.267 284.867 133.553 285.513C131.871 286.123 129.911 286.701 127.671 287.248C125.463 287.758 123.305 288.23 121.195 288.663C119.117 289.06 117.431 289.393 116.139 289.662C113.008 290.31 110.103 291.201 107.424 292.333C104.776 293.429 102.678 294.95 101.13 296.897C99.6145 298.806 98.9718 301.307 99.2023 304.4C99.5175 308.626 101.319 311.705 104.607 313.636C107.927 315.531 112.009 316.297 116.854 315.936ZM244.326 235.949L245.095 246.257L202.421 249.439L201.652 239.131L244.326 235.949ZM220.337 317.341L213.619 227.252C213.281 222.716 214.064 218.857 215.969 215.675C217.874 212.493 220.471 210.019 223.76 208.253C227.048 206.488 230.583 205.464 234.362 205.182C237.351 204.959 239.809 205.018 241.734 205.358C243.66 205.698 245.102 206.04 246.06 206.383L243.34 217.158C242.706 216.998 241.828 216.804 240.705 216.577C239.617 216.347 238.197 216.298 236.444 216.429C232.424 216.728 229.597 217.958 227.961 220.119C226.36 222.277 225.705 225.314 225.997 229.231L232.5 316.434L220.337 317.341ZM267.276 313.841L261.373 234.678L273.123 233.802L274.015 245.759L274.84 245.697C275.991 241.673 278.365 238.3 281.963 235.578C285.56 232.857 289.73 231.32 294.471 230.966C295.365 230.899 296.483 230.833 297.825 230.768C299.168 230.702 300.185 230.678 300.877 230.696L301.8 243.065C301.38 242.993 300.423 242.908 298.93 242.812C297.469 242.68 295.932 242.673 294.317 242.794C290.468 243.081 287.093 244.144 284.19 245.985C281.318 247.788 279.111 250.164 277.569 253.112C276.059 256.023 275.437 259.265 275.703 262.839L279.439 312.934L267.276 313.841ZM321.275 309.815L315.372 230.651L327.535 229.744L333.438 308.908L321.275 309.815ZM320.573 216.996C318.202 217.173 316.098 216.518 314.259 215.031C312.455 213.542 311.469 211.663 311.3 209.396C311.131 207.128 311.828 205.124 313.391 203.384C314.988 201.641 316.972 200.681 319.343 200.504C321.714 200.327 323.801 200.983 325.605 202.473C327.444 203.96 328.447 205.837 328.617 208.105C328.786 210.372 328.071 212.378 326.474 214.121C324.911 215.861 322.944 216.82 320.573 216.996ZM389.029 306.421C381.402 306.99 374.696 305.797 368.914 302.842C363.162 299.85 358.566 295.425 355.123 289.566C351.712 283.671 349.704 276.669 349.1 268.56C348.495 260.451 349.439 253.194 351.933 246.789C354.459 240.348 358.255 235.193 363.322 231.326C368.42 227.421 374.543 225.203 381.69 224.67C385.813 224.362 389.936 224.746 394.058 225.821C398.181 226.895 402.006 228.856 405.535 231.702C409.062 234.514 411.993 238.372 414.328 243.277C416.663 248.182 418.106 254.328 418.657 261.715L419.041 266.869L358.019 271.419L357.235 260.905L405.888 257.277C405.555 252.811 404.364 248.892 402.316 245.52C400.303 242.146 397.588 239.567 394.173 237.784C390.792 235.997 386.902 235.268 382.505 235.596C377.66 235.957 373.558 237.472 370.198 240.141C366.87 242.773 364.404 246.067 362.798 250.022C361.193 253.976 360.553 258.136 360.878 262.499L361.401 269.508C361.847 275.487 363.255 280.478 365.627 284.482C368.03 288.449 371.168 291.376 375.04 293.264C378.91 295.117 383.301 295.861 388.215 295.495C391.41 295.256 394.263 294.594 396.773 293.509C399.315 292.387 401.463 290.844 403.217 288.882C404.969 286.886 406.257 284.475 407.083 281.65L419.08 284.072C418.14 288.15 416.323 291.809 413.628 295.051C410.93 298.258 407.497 300.863 403.327 302.867C399.155 304.837 394.389 306.021 389.029 306.421ZM448.799 252.419L452.35 300.041L440.187 300.948L434.284 221.785L446.035 220.908L446.958 233.278L447.988 233.201C449.544 229.042 452.121 225.603 455.718 222.881C459.313 220.126 464.1 218.525 470.078 218.079C475.438 217.679 480.21 218.429 484.394 220.328C488.576 222.193 491.948 225.259 494.512 229.524C497.074 233.756 498.605 239.239 499.107 245.973L502.858 296.275L490.695 297.182L487.006 247.705C486.542 241.486 484.566 236.761 481.077 233.532C477.586 230.268 473.023 228.846 467.388 229.267C463.506 229.556 460.098 230.657 457.166 232.568C454.268 234.477 452.063 237.112 450.552 240.472C449.04 243.833 448.456 247.815 448.799 252.419ZM555.1 294.038C548.503 294.53 542.554 293.297 537.255 290.341C531.953 287.351 527.648 282.904 524.341 277C521.03 271.063 519.062 263.902 518.437 255.519C517.817 247.204 518.705 239.882 521.101 233.553C523.497 227.225 527.113 222.205 531.95 218.493C536.786 214.781 542.537 212.676 549.203 212.179C554.357 211.795 558.492 212.35 561.61 213.845C564.759 215.303 567.204 217.056 568.946 219.103C570.72 221.112 572.105 222.771 573.101 224.079L574.131 224.002L571.226 185.039L583.389 184.132L591.26 289.683L579.509 290.559L578.602 278.396L577.159 278.504C576.373 280.013 575.238 281.929 573.752 284.251C572.265 286.539 570.056 288.655 567.126 290.601C564.193 292.513 560.185 293.658 555.1 294.038ZM555.934 282.988C560.813 282.625 564.841 281.046 568.019 278.252C571.194 275.424 573.489 271.677 574.903 267.011C576.314 262.311 576.797 256.971 576.351 250.993C575.911 245.083 574.666 239.976 572.618 235.672C570.567 231.333 567.765 228.053 564.214 225.83C560.659 223.573 556.408 222.629 551.461 222.998C546.307 223.382 542.111 225.025 538.872 227.927C535.665 230.792 533.371 234.539 531.988 239.168C530.638 243.76 530.17 248.839 530.585 254.405C531.005 260.04 532.246 265.096 534.307 269.572C536.4 274.011 539.249 277.461 542.853 279.922C546.488 282.345 550.849 283.368 555.934 282.988ZM623.435 181.146L628.061 257.088L616.104 257.979L609.416 182.191L623.435 181.146ZM624.357 288.044C621.815 288.234 619.565 287.486 617.608 285.801C615.651 284.115 614.578 282.002 614.389 279.459C614.199 276.916 614.947 274.667 616.632 272.71C618.317 270.753 620.431 269.68 622.974 269.49C625.516 269.301 627.766 270.049 629.723 271.734C631.68 273.419 632.753 275.533 632.943 278.075C633.068 279.759 632.754 281.337 632 282.81C631.28 284.28 630.248 285.497 628.904 286.461C627.591 287.388 626.075 287.916 624.357 288.044Z" fill="white"/>
<path d="M704.239 100.633C699.766 102.639 697.766 107.891 699.772 112.364C701.778 116.837 707.031 118.837 711.504 116.831L704.239 100.633ZM842.961 124.683L848.616 117.842L848.616 117.842L842.961 124.683ZM830.405 309.124C832.006 313.758 837.059 316.217 841.693 314.616L917.201 288.535C921.834 286.935 924.293 281.881 922.693 277.248C921.092 272.614 916.039 270.155 911.405 271.756L844.287 294.939L821.104 227.821C819.503 223.187 814.45 220.728 809.816 222.329C805.183 223.929 802.724 228.983 804.324 233.616L830.405 309.124ZM707.871 108.732C711.504 116.831 711.501 116.832 711.498 116.833C711.497 116.834 711.495 116.835 711.494 116.835C711.491 116.836 711.49 116.837 711.49 116.837C711.49 116.837 711.495 116.835 711.504 116.831C711.522 116.823 711.557 116.807 711.61 116.784C711.716 116.738 711.892 116.663 712.134 116.563C712.618 116.362 713.369 116.058 714.364 115.68C716.356 114.925 719.318 113.874 723.078 112.752C730.614 110.502 741.261 107.99 753.654 106.945C778.449 104.855 809.642 108.656 837.305 131.525L848.616 117.842C816.258 91.0921 779.907 86.9171 752.163 89.2558C738.286 90.4256 726.415 93.2291 717.999 95.7414C713.784 96.9999 710.413 98.1923 708.064 99.0837C706.889 99.5296 705.969 99.901 705.324 100.169C705.002 100.303 704.748 100.411 704.567 100.489C704.476 100.528 704.403 100.56 704.348 100.584C704.321 100.596 704.298 100.607 704.28 100.615C704.271 100.619 704.263 100.622 704.256 100.625C704.253 100.627 704.248 100.629 704.247 100.629C704.243 100.631 704.239 100.633 707.871 108.732ZM837.305 131.525C850.049 142.06 856.585 157.214 858.824 175.085C861.073 193.044 858.874 213.088 854.713 232.171C850.569 251.179 844.583 268.764 839.607 281.638C837.125 288.061 834.907 293.277 833.318 296.871C832.524 298.668 831.887 300.057 831.454 300.986C831.238 301.451 831.073 301.801 830.964 302.029C830.909 302.144 830.869 302.227 830.844 302.28C830.831 302.306 830.822 302.325 830.817 302.335C830.815 302.34 830.813 302.344 830.812 302.345C830.812 302.346 830.812 302.345 830.812 302.345C830.813 302.344 830.813 302.343 838.795 306.226C846.777 310.11 846.778 310.107 846.779 310.104C846.78 310.102 846.782 310.099 846.783 310.096C846.787 310.089 846.791 310.08 846.796 310.069C846.806 310.048 846.821 310.018 846.839 309.981C846.875 309.906 846.926 309.8 846.991 309.663C847.121 309.389 847.309 308.992 847.548 308.479C848.026 307.452 848.71 305.958 849.554 304.05C851.24 300.236 853.568 294.758 856.166 288.038C861.349 274.625 867.659 256.128 872.058 235.953C876.441 215.852 879.035 193.612 876.438 172.879C873.831 152.059 865.883 132.116 848.616 117.842L837.305 131.525Z" fill="white"/>
</svg>
