<svg width="440" height="346" viewBox="0 0 440 346" fill="none" xmlns="http://www.w3.org/2000/svg">
<path d="M439.949 129.16L418.51 283.887L316.912 337.949L272.172 345.405H118.376C78.9173 317.753 0 248.468 0 222.369H87.6169H139.814H175.234H220.906C237.298 204.644 258.497 190.66 278.696 176.525C299.121 162.232 318.522 147.785 330.894 129.16C337.632 113.576 345.704 88.0958 352.527 64.8449C360.804 36.6402 367.245 11.7157 367.245 11.7157C367.245 11.7157 427.831 -6.92617 439.949 129.16Z" fill="#97BAD3"/>
<path d="M46.6047 62.9807C35.4196 77.8942 10.8744 175.143 0 223.301L223.703 226.097L358.856 145.005L373.77 10.7834L162.184 0.530396C128.318 15.1332 57.7899 48.0672 46.6047 62.9807Z" fill="#AAC8E1"/>
<path fill-rule="evenodd" clip-rule="evenodd" d="M418.511 283.887L439.949 129.16C439.007 118.586 437.773 108.947 436.298 100.16L386.819 243.807L299.202 316.511L74.0205 310.377C90.2445 324.358 106.192 336.867 118.376 345.405H272.172L316.912 337.949L418.511 283.887Z" fill="#75959E"/>
</svg>
