<svg width="413" height="500" viewBox="0 0 413 500" fill="none" xmlns="http://www.w3.org/2000/svg">
<path d="M400.606 415.011C376.352 397.544 187.147 244.881 187.147 244.881L226.295 220.646C226.295 220.646 364.112 322.894 386.828 355.805C409.544 388.716 424.861 432.478 400.606 415.011Z" fill="#E4BEBE"/>
<path d="M222.747 489.746C226.262 460.064 241.592 217.433 241.592 217.433L197.274 229.913C197.274 229.913 179.508 400.595 188.416 439.58C197.325 478.565 219.232 519.428 222.747 489.746Z" fill="#E4BEBE"/>
<path fill-rule="evenodd" clip-rule="evenodd" d="M41.1514 237.18C91.3804 285.788 149.422 283.58 191.841 271.507C200.267 274.557 207.313 277.709 213.271 280.374C238.268 291.557 244.116 294.173 252.393 244.696C288.366 222.152 324.939 183.324 325.715 118.481C327.248 -9.75973 187.287 -24.8611 185.26 30.1662C184.217 58.5111 183.549 122.143 183.147 177.189C143.782 138.739 98.1551 94.4558 77.2996 75.2537C36.7904 37.9562 -51.0103 147.993 41.1514 237.18ZM209.448 78.297C209.941 70.3597 210.37 63.4707 210.57 58.2191C211.916 22.8418 301.987 32.4435 300.903 114.888C299.818 197.332 253.222 211.076 225.362 207.18C201.639 203.863 206.616 123.83 209.448 78.297ZM97.4093 133.529C90.1724 128.175 83.573 123.292 78.3253 119.031C50.8405 96.7163 -1.33185 170.764 61.3659 224.311C124.064 277.857 168.505 250.409 169.437 215.569C170.191 187.381 128.075 156.219 97.4093 133.529Z" fill="#D46269"/>
</svg>
