<svg width="468" height="503" viewBox="0 0 468 503" fill="none" xmlns="http://www.w3.org/2000/svg">
<path fill-rule="evenodd" clip-rule="evenodd" d="M285.766 411.339V460.583C285.766 482.98 310.673 484.48 332.97 484.48C355.266 484.48 373.341 470.379 373.341 447.982V391.868C424.998 355.737 458.12 298.488 458.12 228.991C458.12 108.046 357.805 10 234.06 10C110.315 10 10 108.046 10 228.991C10 300.282 44.8542 358.685 98.8167 394.623V447.982C98.8167 470.379 116.892 484.48 139.188 484.48C161.484 484.48 187.278 480.518 187.278 458.12L189.741 413.801V458.12C189.741 480.518 213.782 492.591 236.079 492.591C258.375 492.591 283.304 482.98 283.304 460.583L285.766 411.339ZM135.151 318.209C175.284 318.209 207.819 285.528 207.819 245.212C207.819 204.897 175.284 172.216 135.151 172.216C95.0171 172.216 62.4826 204.897 62.4826 245.212C62.4826 285.528 95.0171 318.209 135.151 318.209ZM405.638 245.212C405.638 285.528 373.103 318.209 332.97 318.209C292.836 318.209 260.301 285.528 260.301 245.212C260.301 204.897 292.836 172.216 332.97 172.216C373.103 172.216 405.638 204.897 405.638 245.212ZM254.125 354.021C262.758 357.726 268.376 360.137 268.376 348.625C268.376 329.587 253.012 314.154 234.06 314.154C215.108 314.154 199.745 329.587 199.745 348.625C199.745 360.137 205.363 357.726 213.995 354.021C219.638 351.599 226.569 348.625 234.06 348.625C241.551 348.625 248.482 351.599 254.125 354.021Z" stroke="white" stroke-opacity="0.5" stroke-width="19.6976"/>
</svg>
