<svg width="270" height="259" viewBox="0 0 270 259" fill="none" xmlns="http://www.w3.org/2000/svg">
<path d="M115.707 13.1496C122.834 -3.98566 147.108 -3.98566 154.235 13.1496L176.065 65.6351C179.07 72.8589 185.863 77.7947 193.662 78.4199L250.324 82.9625C268.823 84.4455 276.324 107.531 262.23 119.605L219.059 156.585C213.117 161.675 210.523 169.661 212.338 177.271L225.527 232.564C229.833 250.616 210.195 264.884 194.358 255.21L145.847 225.58C139.17 221.502 130.773 221.502 124.096 225.58L75.5848 255.21C59.7472 264.884 40.1091 250.616 44.4151 232.564L57.6045 177.271C59.4198 169.661 56.825 161.675 50.8832 156.585L7.71233 119.605C-6.38192 107.531 1.11915 84.4455 19.6181 82.9625L76.2806 78.4199C84.0793 77.7947 90.8728 72.8589 93.8773 65.6351L115.707 13.1496Z" fill="#F3F2E8"/>
</svg>
