<svg width="290" height="279" viewBox="0 0 290 279" fill="none" xmlns="http://www.w3.org/2000/svg">
<path fill-rule="evenodd" clip-rule="evenodd" d="M199.074 74.6192L184.197 28.833C171.706 -9.61083 117.318 -9.61119 104.827 28.833L89.95 74.6192H41.8076C1.38529 74.6192 -15.4219 126.345 17.2807 150.105L56.2288 178.403L41.352 224.189C28.8608 262.632 72.8614 294.601 105.564 270.842L144.512 242.544L183.46 270.842C216.162 294.601 260.164 262.633 247.672 224.189L232.795 178.403L271.744 150.105C304.446 126.345 287.639 74.6192 247.217 74.6192H199.074ZM157.741 37.4294C153.577 24.6147 135.447 24.6147 131.284 37.4294L113.284 92.8266C111.422 98.5575 106.081 102.438 100.056 102.438H41.8076C28.3334 102.438 22.7311 119.68 33.6319 127.6L80.7556 161.837C85.6306 165.379 87.6705 171.657 85.8084 177.388L67.8088 232.785C63.6451 245.6 78.312 256.256 89.2128 248.336L136.337 214.099C141.211 210.557 147.813 210.557 152.688 214.099L199.811 248.336C210.712 256.256 225.379 245.6 221.215 232.785L203.216 177.388C201.354 171.657 203.394 165.379 208.269 161.837L255.392 127.6C266.293 119.68 260.691 102.438 247.217 102.438H188.969C182.943 102.438 177.602 98.5575 175.74 92.8266L157.741 37.4294Z" fill="#F3F2E8" fill-opacity="0.5"/>
</svg>
