<svg width="265" height="145" viewBox="0 0 265 145" fill="none" xmlns="http://www.w3.org/2000/svg">
<path d="M39.0861 83.5391H45.9318L54.1173 98.3417H54.4441L62.6296 83.5391H69.4753L57.3033 104.518V117H51.2581V104.518L39.0861 83.5391ZM79.7807 117.49C77.33 117.49 75.206 116.951 73.4088 115.873C71.6116 114.794 70.2174 113.286 69.2262 111.347C68.2459 109.408 67.7557 107.143 67.7557 104.55C67.7557 101.958 68.2459 99.6868 69.2262 97.7371C70.2174 95.7874 71.6116 94.2734 73.4088 93.1951C75.206 92.1168 77.33 91.5776 79.7807 91.5776C82.2315 91.5776 84.3555 92.1168 86.1527 93.1951C87.9499 94.2734 89.3386 95.7874 90.3189 97.7371C91.3101 99.6868 91.8057 101.958 91.8057 104.55C91.8057 107.143 91.3101 109.408 90.3189 111.347C89.3386 113.286 87.9499 114.794 86.1527 115.873C84.3555 116.951 82.2315 117.49 79.7807 117.49ZM79.8134 112.752C81.1423 112.752 82.2533 112.387 83.1464 111.657C84.0396 110.917 84.704 109.926 85.1397 108.684C85.5863 107.442 85.8096 106.059 85.8096 104.534C85.8096 102.998 85.5863 101.609 85.1397 100.368C84.704 99.115 84.0396 98.1184 83.1464 97.3777C82.2533 96.637 81.1423 96.2667 79.8134 96.2667C78.4519 96.2667 77.3191 96.637 76.415 97.3777C75.5219 98.1184 74.852 99.115 74.4054 100.368C73.9697 101.609 73.7519 102.998 73.7519 104.534C73.7519 106.059 73.9697 107.442 74.4054 108.684C74.852 109.926 75.5219 110.917 76.415 111.657C77.3191 112.387 78.4519 112.752 79.8134 112.752ZM112.821 106.445V91.9044H118.735V117H113.001V112.54H112.739C112.173 113.945 111.242 115.094 109.945 115.987C108.66 116.88 107.075 117.327 105.191 117.327C103.546 117.327 102.092 116.962 100.829 116.232C99.5759 115.491 98.5957 114.419 97.8877 113.013C97.1797 111.597 96.8257 109.887 96.8257 107.883V91.9044H102.74V106.968C102.74 108.559 103.176 109.822 104.047 110.759C104.919 111.695 106.062 112.164 107.478 112.164C108.35 112.164 109.194 111.951 110.011 111.527C110.828 111.102 111.497 110.47 112.02 109.631C112.554 108.782 112.821 107.72 112.821 106.445ZM141.409 117L134.318 91.9044H140.347L144.758 109.55H144.987L149.496 91.9044H155.46L159.969 109.452H160.214L164.56 91.9044H170.605L163.498 117H157.339L152.633 100.041H152.29L147.585 117H141.409ZM174.735 117V91.9044H180.649V117H174.735ZM177.708 88.3426C176.772 88.3426 175.966 88.0322 175.29 87.4113C174.615 86.7796 174.277 86.0226 174.277 85.1403C174.277 84.2471 174.615 83.4901 175.29 82.8693C175.966 82.2375 176.772 81.9217 177.708 81.9217C178.656 81.9217 179.462 82.2375 180.127 82.8693C180.802 83.4901 181.139 84.2471 181.139 85.1403C181.139 86.0226 180.802 86.7796 180.127 87.4113C179.462 88.0322 178.656 88.3426 177.708 88.3426ZM192.646 102.296V117H186.731V91.9044H192.384V96.1687H192.678C193.256 94.7636 194.176 93.6471 195.44 92.8193C196.714 91.9915 198.288 91.5776 200.161 91.5776C201.893 91.5776 203.402 91.9479 204.687 92.6886C205.983 93.4293 206.985 94.5022 207.693 95.9072C208.412 97.3123 208.766 99.017 208.755 101.021V117H202.841V101.936C202.841 100.259 202.405 98.9462 201.534 97.9985C200.673 97.0509 199.481 96.5771 197.956 96.5771C196.921 96.5771 196.001 96.8059 195.195 97.2633C194.399 97.7099 193.773 98.358 193.316 99.2076C192.869 100.057 192.646 101.086 192.646 102.296ZM222.006 83.5391L221.467 107.164H216.206L215.683 83.5391H222.006ZM218.836 117.359C217.845 117.359 216.995 117.011 216.287 116.314C215.59 115.617 215.242 114.767 215.242 113.765C215.242 112.785 215.59 111.946 216.287 111.249C216.995 110.552 217.845 110.203 218.836 110.203C219.805 110.203 220.644 110.552 221.352 111.249C222.071 111.946 222.43 112.785 222.43 113.765C222.43 114.429 222.262 115.034 221.924 115.579C221.597 116.123 221.162 116.559 220.617 116.886C220.083 117.202 219.49 117.359 218.836 117.359Z" fill="#F3F2E8"/>
<path d="M114.245 12.3291C114.245 12.3291 107.767 10.35 103.514 13.1899C97.8941 16.9425 98.2814 22.3767 100.587 28.2532C103.238 35.0064 114.245 42.0253 114.245 42.0253M114.245 12.3291V9.8575C114.245 9.8575 112.294 8.88608 110.831 7.59494C108.676 5.6934 108.88 2 108.88 2H155.217C155.217 2 155.909 5.6934 153.754 7.59494C152.291 8.88608 150.339 9.8575 150.339 9.8575V12.3291M114.245 12.3291V42.0253M114.245 42.0253C114.245 42.0253 114.758 49.7561 118.147 53.2152C120.393 55.5075 125.463 57.519 125.463 57.519V62.6835C125.463 62.6835 122.087 63.3938 120.098 63.9747C116.335 65.0736 113.318 67.9994 115.5 70C116.314 70.7469 118.147 71 118.147 71H145.95C145.95 71 147.634 70.7001 148.388 70C150.523 68.0201 147.517 65.138 143.999 63.9747C142.037 63.3259 138.145 62.6835 138.145 62.6835V57.519C138.145 57.519 143.53 55.5603 145.95 53.2152C149.477 49.7955 150.339 42.0253 150.339 42.0253M150.339 42.0253C150.339 42.0253 162.162 35.196 164.972 28.2532C167.343 22.3967 165.569 17.1064 160.095 13.1899C155.656 10.0143 150.339 12.3291 150.339 12.3291M150.339 42.0253V12.3291" stroke="#F3F2E8" stroke-opacity="0.5" stroke-width="4"/>
<path d="M66.7077 24.1914C67.9258 21.2695 72.0742 21.2695 73.2923 24.1914L77.0231 33.1412C77.5366 34.373 78.6976 35.2146 80.0304 35.3212L89.7142 36.0958C92.8757 36.3487 94.1577 40.2853 91.7489 42.344L84.3709 48.6499C83.3554 49.5178 82.912 50.8796 83.2222 52.1773L85.4763 61.6058C86.2122 64.684 82.856 67.1169 80.1493 65.4674L71.8586 60.4149C70.7176 59.7195 69.2824 59.7195 68.1414 60.4149L59.8507 65.4674C57.144 67.1169 53.7878 64.684 54.5237 61.6058L56.7778 52.1773C57.088 50.8796 56.6446 49.5178 55.6291 48.6499L48.2511 42.344C45.8423 40.2853 47.1243 36.3487 50.2858 36.0958L59.9696 35.3212C61.3024 35.2146 62.4634 34.373 62.9769 33.1412L66.7077 24.1914Z" fill="#F3F2E8" fill-opacity="0.5"/>
<path d="M191.279 25.1416C192.471 22.2861 196.529 22.2861 197.721 25.1416L201.37 33.888C201.873 35.0918 203.009 35.9143 204.312 36.0185L213.786 36.7755C216.878 37.0226 218.133 40.8697 215.776 42.8817L208.558 49.0442C207.565 49.8924 207.131 51.2232 207.435 52.4914L209.64 61.7057C210.36 64.7139 207.077 67.0915 204.429 65.4795L196.318 60.5418C195.202 59.8622 193.798 59.8622 192.682 60.5418L184.571 65.4795C181.923 67.0915 178.64 64.7139 179.36 61.7057L181.565 52.4914C181.869 51.2232 181.435 49.8924 180.442 49.0442L173.224 42.8817C170.867 40.8697 172.122 37.0226 175.214 36.7755L184.688 36.0185C185.991 35.9143 187.127 35.0918 187.63 33.888L191.279 25.1416Z" fill="#F3F2E8" fill-opacity="0.5"/>
<path fill-rule="evenodd" clip-rule="evenodd" d="M41 46H8.94928C4.00673 46 0 50.0067 0 54.9493V136.051C0 140.993 4.00673 145 8.94928 145H256.051C260.993 145 265 140.993 265 136.051V54.9493C265 50.0067 260.993 46 256.051 46H224V49.5797H256.051C259.016 49.5797 261.42 51.9837 261.42 54.9493V136.051C261.42 139.016 259.016 141.42 256.051 141.42H8.94928C5.98375 141.42 3.57971 139.016 3.57971 136.051V54.9493C3.57971 51.9837 5.98375 49.5797 8.94928 49.5797H41V46Z" fill="#F3F2E8" fill-opacity="0.5"/>
</svg>
